# xmcd
# 
# Track frame offsets:
#     150
#     6265
#     16107
#     27102
#     94605
#     107510
#     123075
#     141800
#     158575
#     175040
#     191705
#     253167
#     257802
#     277707
#     298182
#     316227
# 
# Disc length: 4529
# 
# Revision: 21
# Processed by: cddbd v1.5.2PL0 Copyright (c) Steve Scherf et al.
# Submitted via: fre:ac v1.0.31
# 
DISCID=ca11af10
DTITLE=Jimi Hendrix - Electric Ladyland
DYEAR=1968
DGENRE=Rock/Pop
TTITLE0=And the Gods Made Love
TTITLE1=Have You Ever Been (To Electric Ladyland)
TTITLE2=Crosstown Traffic
TTITLE3=Voodoo Chile
TTITLE4=Little Miss Strange
TTITLE5=Long Hot Summer Night
TTITLE6=Come On (Let the Good Times Roll)
TTITLE7=Gypsy Eyes
TTITLE8=Burning of the Midnight Lamp
TTITLE9=Rainy Day, Dream Away
TTITLE10=1983... (A Merman I Should Turn to Be)
TTITLE11=Moon, Turn the Tides...Gently Gently Away
TTITLE12=Still Raining, Still Dreaming
TTITLE13=House Burning Down
TTITLE14=All Along the Watchtower
TTITLE15=Voodoo Child (Slight Return)
EXTD=
EXTT0=
EXTT1=
EXTT2=
EXTT3=
EXTT4=
EXTT5=
EXTT6=
EXTT7=
EXTT8=
EXTT9=
EXTT10=
EXTT11=
EXTT12=
EXTT13=
EXTT14=
EXTT15=
PLAYORDER=
